<?xml version="1.0" standalone="no"?>
<!DOCTYPE svg PUBLIC "-//W3C//DTD SVG 20010904//EN"
 "http://www.w3.org/TR/2001/REC-SVG-20010904/DTD/svg10.dtd">
<svg version="1.0" xmlns="http://www.w3.org/2000/svg"
 width="700.000000pt" height="700.000000pt" viewBox="0 0 700.000000 700.000000"
 preserveAspectRatio="xMidYMid meet">
<metadata>
Created by potrace 1.14, written by Peter Selinger 2001-2017
</metadata>
<g transform="translate(0.000000,700.000000) scale(0.100000,-0.100000)"
fill="#000000" stroke="none">
<path d="M3110 6289 c-264 -34 -524 -126 -715 -255 -373 -250 -612 -627 -709
-1115 -34 -170 -41 -259 -40 -485 l1 -192 -35 15 c-54 22 -140 13 -191 -20
-61 -40 -95 -107 -98 -189 -1 -37 2 -82 7 -100 5 -18 11 -44 13 -58 16 -90 97
-330 143 -423 70 -143 195 -267 283 -282 l39 -6 32 -102 c18 -56 43 -129 57
-162 70 -168 273 -471 414 -620 l38 -40 -53 -1 c-145 -3 -303 -94 -433 -249
-71 -86 -89 -123 -108 -222 -23 -114 -31 -130 -74 -144 -130 -43 -220 -155
-276 -344 -37 -124 -66 -204 -76 -211 -5 -3 -19 -7 -30 -9 -40 -8 -204 -56
-234 -70 -16 -7 -64 -27 -105 -45 -217 -93 -417 -277 -511 -470 -26 -54 -81
-198 -79 -208 1 -1 -2 -17 -5 -35 -13 -77 -15 -96 -21 -169 l-6 -78 3104 0
3105 0 -8 57 c-4 32 -10 85 -13 118 -21 242 -157 477 -368 635 -133 100 -381
210 -611 270 -27 7 -50 18 -52 24 -2 6 -6 41 -9 77 -12 135 -48 259 -98 331
-10 14 -18 30 -18 35 0 4 -25 36 -55 70 -57 63 -146 125 -227 159 -38 15 -49
25 -54 49 -11 52 -56 158 -89 210 -99 154 -253 226 -471 222 l-83 -2 27 29
c15 17 32 36 39 43 76 84 217 312 305 493 78 160 119 278 144 417 18 98 20
103 46 109 63 13 176 131 222 229 51 112 114 349 134 504 10 83 7 191 -7 232
-14 44 -73 105 -121 126 -48 21 -128 20 -168 -1 -19 -10 -35 -16 -37 -14 -1 2
-5 50 -9 108 -3 58 -8 115 -10 128 -3 13 -8 51 -11 85 -4 34 -9 65 -12 70 -2
4 -6 20 -9 35 -40 243 -145 512 -282 722 -233 359 -589 607 -994 691 -57 11
-119 23 -138 26 -68 8 -336 10 -400 2z"/>
</g>
</svg>
